<svg xmlns="http://www.w3.org/2000/svg" width="163.464" height="36" viewBox="0 0 163.464 36"><g fill="#ff5576" color="#ff5576" transform="translate(0 6.239999999999998) scale(0.5600001)"><svg width="50" height="42" x="0" y="0" viewBox="0 0 50 42"><path fill="currentColor" fill-rule="nonzero" d="M21.3 13.56l5.81 12.46-10.95-2.3-5.81-12.46 10.95 2.3zm20.86-9.73l5.81 12.46-10.95-2.3-5.81-12.46 10.95 2.3zm-8.91 36.83L8.44 36.19 16 24.99l12.1 2.54c.05.01.09.01.13.01.09 0 .18-.02.27-.06.01 0 .01-.01.01-.01.03-.01.05-.04.08-.06.03-.02.05-.05.08-.07.03-.03.07-.05.09-.08l8.11-12.01 11.19 2.35-14.81 23.06zm16.45-23.3c.01-.02.02-.03.03-.05.01-.05-.02-.08-.03-.13 0-.07.01-.13-.02-.2-.01-.02.01-.05-.01-.07L43.19 3c-.01-.02-.03-.02-.03-.03-.04-.07-.11-.11-.18-.16-.07-.05-.12-.11-.2-.14-.02-.01-.02-.02-.04-.03L30.22.01c-.04-.01-.08.03-.13.03-.07 0-.13 0-.19.02-.03.01-.06-.01-.08 0-.01.01-.02.03-.03.03-.05.03-.08.07-.12.12-.03.03-.08.03-.11.07l-8.11 12.01-12.1-2.54c-.05-.01-.08.02-.13.02-.07 0-.12 0-.19.02-.03.01-.06-.01-.08.01-.02.01-.02.03-.03.03-.05.03-.08.07-.12.12-.03.03-.08.03-.11.07L.34 22.37c-.02.02 0 .05-.02.08-.04.08-.04.15-.05.23-.01.08-.02.16.01.24.02.03 0 .05.01.08l6.49 13.91c.01.02.03.03.05.05.02.04.04.06.07.09.03.03.05.06.08.08.01.01.01.03.02.04 0 0 .01 0 .01.01.05.03.11.04.17.05.03.01.04.04.06.04l26.2 4.72a.61.61 0 0 0 .48-.12c.03-.02.05-.05.08-.07.03-.03.07-.05.1-.09l15.54-24.18c.02-.02 0-.05.01-.07.02-.04.03-.07.05-.1z"/></svg></g><path fill="#0b0cac" fill-rule="nonzero" d="M9.26 0.89Q10.80 0.89 12 1.60Q13.20 2.30 13.87 3.54Q14.54 4.78 14.54 6.31L14.54 6.31L14.54 6.62Q14.54 8.16 13.87 9.41Q13.20 10.66 12 11.36Q10.80 12.07 9.26 12.07L9.26 12.07L5.30 12.07L5.30 17.40L0 17.40L0 0.89L9.26 0.89ZM5.30 4.80L5.30 8.21L7.49 8.21Q8.33 8.21 8.75 7.78Q9.17 7.34 9.17 6.60L9.17 6.60L9.17 6.41Q9.17 5.64 8.75 5.22Q8.33 4.80 7.49 4.80L7.49 4.80L5.30 4.80ZM25.20 0.60Q28.87 0.60 31.01 2.44Q33.14 4.27 33.14 7.68L33.14 7.68L28.08 7.68Q28.08 6.24 27.32 5.40Q26.57 4.56 25.18 4.56L25.18 4.56Q23.57 4.56 22.81 5.57Q22.06 6.58 22.06 8.38L22.06 8.38L22.06 9.91Q22.06 11.69 22.81 12.71Q23.57 13.73 25.13 13.73L25.13 13.73Q26.66 13.73 27.46 12.94Q28.25 12.14 28.25 10.70L28.25 10.70L33.14 10.70Q33.14 14.09 31.07 15.89Q28.99 17.69 25.20 17.69L25.20 17.69Q20.98 17.69 18.80 15.53Q16.63 13.37 16.63 9.14L16.63 9.14Q16.63 4.92 18.80 2.76Q20.98 0.60 25.20 0.60L25.20 0.60ZM46.99 0.89Q48.24 0.89 49.28 1.40Q50.33 1.92 50.94 2.86Q51.55 3.79 51.55 4.94L51.55 4.94Q51.55 7.99 48.79 8.78L48.79 8.78L48.79 8.88Q51.94 9.60 51.94 13.01L51.94 13.01Q51.94 14.30 51.30 15.30Q50.66 16.30 49.56 16.85Q48.46 17.40 47.14 17.40L47.14 17.40L36.00 17.40L36.00 0.89L46.99 0.89ZM41.30 4.51L41.30 7.32L44.95 7.32Q45.48 7.32 45.83 6.95Q46.18 6.58 46.18 6.02L46.18 6.02L46.18 5.78Q46.18 5.26 45.82 4.88Q45.46 4.51 44.95 4.51L44.95 4.51L41.30 4.51ZM41.30 10.73L41.30 13.56L45.34 13.56Q45.86 13.56 46.21 13.19Q46.56 12.82 46.56 12.26L46.56 12.26L46.56 12.02Q46.56 11.47 46.21 11.10Q45.86 10.73 45.34 10.73L45.34 10.73L41.30 10.73ZM67.44 17.40L63.53 17.40L63.22 15.48Q62.47 16.51 61.26 17.10Q60.05 17.69 58.70 17.69L58.70 17.69Q56.50 17.69 55.39 16.46Q54.29 15.24 54.29 12.94L54.29 12.94L54.29 4.73L59.06 4.73L59.06 12.36Q59.06 13.18 59.48 13.67Q59.90 14.16 60.67 14.16L60.67 14.16Q61.56 14.16 62.11 13.58Q62.66 13.01 62.66 12.17L62.66 12.17L62.66 4.73L67.44 4.73L67.44 17.40ZM75.29 3.24L70.51 3.24L70.51 0L75.29 0L75.29 3.24ZM75.29 17.40L70.51 17.40L70.51 4.73L75.29 4.73L75.29 17.40ZM83.28 17.40L78.50 17.40L78.50 0L83.28 0L83.28 17.40ZM99.43 17.40L95.54 17.40L95.14 15.60Q93.74 17.69 91.10 17.69L91.10 17.69Q88.54 17.69 87.14 16.01Q85.75 14.33 85.75 11.04L85.75 11.04Q85.75 7.78 87.14 6.11Q88.54 4.44 91.10 4.44L91.10 4.44Q93.29 4.44 94.66 5.90L94.66 5.90L94.66 0L99.43 0L99.43 17.40ZM92.59 7.97Q90.53 7.97 90.53 10.44L90.53 10.44L90.53 11.71Q90.53 14.16 92.59 14.16L92.59 14.16Q93.65 14.16 94.18 13.42Q94.70 12.67 94.70 11.47L94.70 11.47L94.70 10.68Q94.70 9.48 94.18 8.72Q93.65 7.97 92.59 7.97L92.59 7.97ZM108.89 4.44Q112.37 4.44 114.20 6.07Q116.04 7.70 116.04 11.06L116.04 11.06L116.04 11.88L106.54 11.88Q106.54 13.25 107.15 13.94Q107.76 14.64 109.08 14.64L109.08 14.64Q110.28 14.64 110.84 14.14Q111.41 13.63 111.41 12.79L111.41 12.79L116.04 12.79Q116.04 15.10 114.29 16.39Q112.54 17.69 109.18 17.69L109.18 17.69Q105.65 17.69 103.70 16.04Q101.76 14.40 101.76 11.06L101.76 11.06Q101.76 7.80 103.66 6.12Q105.55 4.44 108.89 4.44L108.89 4.44ZM109.08 7.49Q106.82 7.49 106.56 9.62L106.56 9.62L111.22 9.62Q111.22 8.64 110.65 8.06Q110.09 7.49 109.08 7.49L109.08 7.49ZM126.05 4.42Q126.60 4.42 127.03 4.55Q127.46 4.68 127.46 4.70L127.46 4.70L127.46 8.71L125.93 8.71Q124.44 8.71 123.78 9.48Q123.12 10.25 123.12 11.76L123.12 11.76L123.12 17.40L118.34 17.40L118.34 4.73L122.26 4.73L122.57 6.65Q123 5.54 123.94 4.98Q124.87 4.42 126.05 4.42L126.05 4.42Z" transform="translate(36, 9.3)"/></svg>